<svg width="284" height="80" viewBox="0 0 284 80" fill="none" xmlns="http://www.w3.org/2000/svg">
<path d="M48.9001 22.0329L39.8335 27.4996L35.3 24.7996L44.4002 19.3329L39.7668 16.5996L26.1667 24.8329L39.8667 32.9996L53.5001 24.7663L48.9001 22.0329Z" fill="#09090B"/>
<path fill-rule="evenodd" clip-rule="evenodd" d="M36.6667 37.1663L36.6333 37.133L10 20.833L0 51.633L36.6333 74.4997L36.6667 74.533V37.1663Z" fill="url(#paint0_linear_5713_39475)"/>
<path fill-rule="evenodd" clip-rule="evenodd" d="M70 20.8333L40 2.5L10 20.8333L16.3667 24.7333L40 10.3L63.6 24.7333L43.3667 37.1333L43.3333 37.1667V74.5333L43.3667 74.5L80 51.6333L70 20.8333Z" fill="url(#paint1_linear_5713_39475)"/>
<path d="M203.697 28.2551C204.991 28.2563 206.265 28.5716 207.409 29.1741C208.554 29.7766 209.536 30.6481 210.269 31.7137L210.552 32.0911L216.998 27.5318L216.715 27.1545C214.845 24.277 212.084 22.0904 208.855 20.9285C205.626 19.7666 202.106 19.6932 198.831 20.7194C195.556 21.7457 192.707 23.8153 190.719 26.6123C188.73 29.4093 187.712 32.7801 187.818 36.2102V43.7881C187.712 47.2182 188.73 50.5889 190.719 53.3859C192.707 56.1829 195.556 58.2525 198.831 59.2787C202.106 60.305 205.626 60.2316 208.855 59.0696C212.084 57.9077 214.845 55.7211 216.715 52.8436L216.966 52.4663L210.678 47.9385L210.395 48.3473C209.419 49.7429 208.025 50.7918 206.413 51.3418C204.802 51.8919 203.057 51.9146 201.431 51.4067C199.806 50.8988 198.385 49.8866 197.373 48.5168C196.362 47.147 195.812 45.4909 195.805 43.7881V36.2102C195.829 34.1187 196.666 32.1186 198.14 30.6337C199.613 29.1489 201.606 28.2958 203.697 28.2551Z" fill="#09090B"/>
<path d="M107.386 28.2551C108.685 28.2538 109.964 28.5679 111.114 29.1704C112.265 29.7729 113.251 30.6457 113.99 31.7137L114.241 32.0911L120.687 27.5947L120.435 27.2174C118.507 24.4366 115.741 22.3444 112.54 21.2461C109.34 20.1477 105.872 20.1006 102.643 21.1115C99.4133 22.1224 96.5914 24.1385 94.5884 26.8659C92.5854 29.5932 91.5059 32.8892 91.5076 36.2731V43.8509C91.401 47.281 92.4196 50.6519 94.408 53.4489C96.3964 56.2458 99.2455 58.3153 102.52 59.3416C105.795 60.3678 109.315 60.2944 112.545 59.1325C115.774 57.9706 118.534 55.7841 120.404 52.9066L120.687 52.5293L114.241 48.0014L113.958 48.4102C112.983 49.8059 111.588 50.8547 109.977 51.4048C108.365 51.9548 106.62 51.9775 104.995 51.4696C103.369 50.9617 101.948 49.9496 100.937 48.5798C99.925 47.21 99.3757 45.5537 99.3684 43.8509V36.2731C99.3767 34.1491 100.224 32.1145 101.726 30.6126C103.228 29.1108 105.262 28.2633 107.386 28.2551Z" fill="#09090B"/>
<path d="M124.492 20.3942H132.353V51.8375H146.502V59.6983H124.492V20.3942Z" fill="#09090B"/>
<path d="M278.407 20.3942H269.665L263.628 32.8143L257.56 20.3942H248.818L259.698 42.6875V59.6983H267.559V42.6875L278.407 20.3942Z" fill="#09090B"/>
<path d="M238.694 20.3942H248.567L235.424 37.6251L249.762 59.6983H240.392L230.361 44.2911L228.255 47.0581V59.6983H220.394V20.3942H228.255V34.1035L238.694 20.3942Z" fill="#09090B"/>
<path d="M161.626 20.3942L149.741 59.6983H157.947L167.38 28.538L176.813 59.6983H185.051L173.134 20.3942H161.626Z" fill="#09090B"/>
<path d="M171.657 59.6983H163.136L167.38 45.6431L171.657 59.6983Z" fill="#09090B"/>
<defs>
<linearGradient id="paint0_linear_5713_39475" x1="2.93403e-07" y1="75.977" x2="52.295" y2="47.6709" gradientUnits="userSpaceOnUse">
<stop stop-color="#5236FF"/>
<stop offset="0.0001" stop-color="#5236FF"/>
<stop offset="1" stop-color="#D9EDFF"/>
</linearGradient>
<linearGradient id="paint1_linear_5713_39475" x1="45" y1="2.5" x2="45" y2="74.5333" gradientUnits="userSpaceOnUse">
<stop stop-color="#8587FF"/>
<stop offset="1" stop-color="#383BC3"/>
</linearGradient>
</defs>
</svg>
